# xmcd
#
# Track frame offsets:
#	182
#	13412
#	27372
#	38380
#	52325
#	62835
#	75280
#	85922
#	98270
#	111287
#	123212
#	134527
#	145227
#	156880
#	168315
#	181020
#	191425
#	213310
#	224417
#	237402
#	248132
#	260522
#
# Disc length: 3626 seconds
# Revision: 2
# Processed by: cddbd v1.5.2PL0 Copyright (c) Steve Scherf et al.
# Submitted via: dBpowerAMP V12.0
#
DISCID=2d0e2816
DTITLE=Elmore James - Shake Your Moneymaker
DYEAR=1986
DGENRE=Blues
TTITLE0=Dust My Broom
TTITLE1=Twelve Year Old Boy
TTITLE2=Coming Home
TTITLE3=It Hurts Me Too
TTITLE4=Elmore's Contribution to Jazz
TTITLE5=Cry for Me Baby
TTITLE6=Take Me Where You Go
TTITLE7=Sky Is Crying
TTITLE8=Held My Baby Last Night
TTITLE9=Knocking at Your Door
TTITLE10=Rollin' and Tumblin'
TTITLE11=Done Somebody Wrong
TTITLE12=Fine Little Mama
TTITLE13=Shake Your Moneymaker
TTITLE14=I Need You
TTITLE15=Can't Stop Loving My Baby
TTITLE16=Something Inside Me
TTITLE17=Person to Person
TTITLE18=Baby Please Set a Date
TTITLE19=One Way Out
TTITLE20=Got to Move
TTITLE21=Talk to Me Baby (I Can't Hold Out)
EXTD=
EXTT0=
EXTT1=
EXTT2=
EXTT3=
EXTT4=
EXTT5=
EXTT6=
EXTT7=
EXTT8=
EXTT9=
EXTT10=
EXTT11=
EXTT12=
EXTT13=
EXTT14=
EXTT15=
EXTT16=
EXTT17=
EXTT18=
EXTT19=
EXTT20=
EXTT21=
PLAYORDER=
